<?xml version="1.0" encoding="UTF-8" standalone="no"?>
<svg
   xmlns:dc="http://purl.org/dc/elements/1.1/"
   xmlns:cc="http://creativecommons.org/ns#"
   xmlns:rdf="http://www.w3.org/1999/02/22-rdf-syntax-ns#"
   xmlns:svg="http://www.w3.org/2000/svg"
   xmlns="http://www.w3.org/2000/svg"
   xmlns:sodipodi="http://sodipodi.sourceforge.net/DTD/sodipodi-0.dtd"
   xmlns:inkscape="http://www.inkscape.org/namespaces/inkscape"
   width="284.01614mm"
   height="287.38467mm"
   viewBox="0 0 284.01614 287.38468"
   version="1.1"
   id="svg8"
   inkscape:version="0.92.3 (2405546, 2018-03-11)"
   sodipodi:docname="WGM-into-Micropheres.svg">
  <sodipodi:namedview
     inkscape:guide-bbox="true"
     showguides="false"
     inkscape:showpageshadow="false"
     showgrid="false"
     inkscape:document-rotation="0"
     inkscape:current-layer="layer1"
     inkscape:document-units="mm"
     inkscape:cy="545.02564"
     inkscape:cx="523.68649"
     inkscape:zoom="0.92871851"
     inkscape:pageshadow="2"
     inkscape:pageopacity="0.0"
     borderopacity="1.0"
     bordercolor="#666666"
     pagecolor="#ffffff"
     id="base"
     fit-margin-top="0"
     fit-margin-left="0"
     fit-margin-right="0"
     fit-margin-bottom="0">
    <inkscape:grid
       type="xygrid"
       id="grid837"
       originx="-7.2414156"
       originy="49.017395" />
    <sodipodi:guide
       inkscape:locked="false"
       position="272.85657,111.20665"
       orientation="1,0"
       id="guide1189" />
  </sodipodi:namedview>
  <defs
     id="defs2" />
  <metadata
     id="metadata5">
    <rdf:RDF>
      <cc:Work
         rdf:about="">
        <dc:format>image/svg+xml</dc:format>
        <dc:type
           rdf:resource="http://purl.org/dc/dcmitype/StillImage" />
        <dc:title />
      </cc:Work>
    </rdf:RDF>
  </metadata>
  <g
     inkscape:label="Layer 1"
     inkscape:groupmode="layer"
     id="layer1"
     transform="translate(-7.2414168,28.367259)">
    <path
       id="path835"
       d="m 144.72799,-16.64447 a 42.250201,42.250201 0 0 0 -42.2491,42.250639 42.250201,42.250201 0 0 0 42.2491,42.249616 42.250201,42.250201 0 0 0 42.25065,-42.249616 42.250201,42.250201 0 0 0 -42.25065,-42.250639 z m 0.0946,8.3695138 a 33.786384,33.786384 0 0 1 33.78656,33.7865582 33.786384,33.786384 0 0 1 -33.78657,33.78605 33.786384,33.786384 0 0 1 -33.78605,-33.78605 33.786384,33.786384 0 0 1 33.78605,-33.7865582 z"
       style="opacity:1;fill:#9dd3f8;fill-opacity:1;stroke:none;stroke-width:0.5;stroke-miterlimit:4;stroke-dasharray:none;stroke-dashoffset:0;stroke-opacity:1"
       inkscape:connector-curvature="0" />
    <path
       id="path6697"
       style="fill:none;stroke:#ff0000;stroke-width:0.60000002;stroke-linecap:butt;stroke-linejoin:miter;stroke-miterlimit:4;stroke-dasharray:none;stroke-opacity:1"
       d="m 185.8971,33.273379 c -0.59523,3.407786 -7.99612,1.526864 -9.24343,4.754198 -1.24642,3.227244 5.46454,6.781609 3.61476,9.705877 -1.85067,2.924178 -7.85184,-1.541189 -10.23914,0.964696 -2.38727,2.505881 2.59835,8.229356 -0.13347,10.354574 -2.73181,2.126148 -6.97338,-4.26759 -10.06685,-2.714415 -3.09438,1.554061 -0.52762,8.652302 -3.86458,9.577546 -3.337,0.924314 -4.78993,-6.453204 -8.24326,-6.196454 -3.45332,0.256777 -3.61115,7.812665 -7.06448,7.550505 -3.45242,-0.263077 -2.26825,-7.847795 -5.59891,-8.792849 -3.33157,-0.945054 -6.25368,6.022557 -9.33633,4.445976 -3.08176,-1.576591 0.84326,-8.000057 -1.87954,-10.137915 -2.7228,-2.137217 -8.13682,3.301831 -10.40415,0.686493 -2.26781,-2.614609 3.69591,-7.046911 1.9697,-10.045774 -1.7262,-2.998954 -8.65278,0.165317 -9.9231,-3.052827 -1.27022,-3.218236 6.04969,-5.461236 5.44091,-8.866589 -0.60886,-3.405444 -8.208,-2.995799 -8.12043,-6.454039 0.0875,-3.458147 7.67066,-2.842554 8.27944,-6.247999 0.60876,-3.405445 -6.53843,-5.599432 -5.26811,-8.8175787 1.27022,-3.2182312 8.114,0.09559 9.98271,-2.8166055 1.86961,-2.9122845 -4.01474,-7.73512973 -1.6252,-10.2389411 2.39002,-2.5037214 7.42254,3.05363704 10.24454,1.0488404 2.822,-2.0047968 -0.87843,-8.7663111 2.27727,-10.1914641 3.15568,-1.425062 5.90104,5.6329469 9.23171,4.6878905 3.33156,-0.9449654 2.17804,-8.3520755 5.63139,-8.6144215 3.45331,-0.262344 3.43888,7.2620631 6.87508,7.6883761 3.43709,0.4264007 5.29137,-7.0554861 8.57965,-5.9688961 3.28737,1.086589 0.52941,8.1319826 3.62287,9.685783 3.09438,1.5538896 7.24126,-4.6910426 9.97307,-2.5651628 2.73182,2.1258788 -2.36746,7.71602861 -0.10733,10.336868 2.26013,2.6208405 8.63015,-1.6539801 10.33472,1.3571331 1.70458,3.0111132 -5.10378,6.3918707 -3.85735,9.6192047 1.24729,3.227335 8.47863,1.393621 9.07387,4.801408 0.59525,3.407786 -7.11319,4.32212 -7.03878,7.234813 -0.097,2.91269 7.4789,3.813871 6.88275,7.221749 z"
       sodipodi:nodetypes="cccscccscccccccccscccsccssccssscscc"
       inkscape:connector-curvature="0" />
    <path
       sodipodi:nodetypes="csssssssssssssssssssssssssssssssssc"
       id="path938"
       d="m 13.611496,195.96521 c 3.840171,0 3.997666,-8.44337 7.837837,-8.44337 3.840171,0 3.997667,8.44337 7.837838,8.44337 3.840171,0 3.997666,-8.44337 7.837837,-8.44337 3.840171,0 3.997667,8.44337 7.837838,8.44337 3.840171,0 3.997666,-8.44337 7.837837,-8.44337 3.840171,0 3.997667,8.44337 7.837838,8.44337 3.840171,0 3.997667,-8.44337 7.837838,-8.44337 3.840171,0 3.997666,8.44337 7.837837,8.44337 3.840171,0 3.997667,-8.44337 7.837838,-8.44337 3.840171,0 3.997666,8.44337 7.837837,8.44337 3.840171,0 3.997667,-8.44337 7.837842,-8.44337 3.840167,0 3.997667,8.44337 7.837837,8.44337 3.84017,0 3.99767,-8.44337 7.83784,-8.44337 3.84017,0 3.99766,8.44337 7.83783,8.44337 3.84017,0 3.99767,-8.44337 7.83784,-8.44337 3.84017,0 3.99767,8.44337 7.83784,8.44337 3.84017,0 3.99767,-8.44337 7.83784,-8.44337 3.84017,0 3.99766,8.44337 7.83783,8.44337 3.84017,0 3.99767,-8.44337 7.83784,-8.44337 3.84017,0 3.99767,8.44337 7.83784,8.44337 3.84017,0 3.99767,-8.44337 7.83784,-8.44337 3.84017,0 3.99766,8.44337 7.83783,8.44337 3.84017,0 3.99767,-8.44337 7.83784,-8.44337 3.84017,0 3.99767,8.44337 7.83784,8.44337 3.84017,0 3.99767,-8.44337 7.83784,-8.44337 3.84017,0 3.99766,8.44337 7.83783,8.44337 3.84017,0 3.99767,-8.44337 7.83784,-8.44337 3.84017,0 3.99767,8.44337 7.83784,8.44337 3.84017,0 3.99767,-8.44337 7.83784,-8.44337 3.84017,0 3.99766,8.44337 7.83783,8.44337 3.84017,0 3.99767,-8.44337 7.83784,-8.44337 3.84017,0 3.99767,8.44337 7.83784,8.44337 3.84017,0 3.99767,-8.44337 7.83784,-8.44337 3.84017,0 3.99766,8.44337 7.83783,8.44337"
       style="fill:none;stroke:#000000;stroke-width:0.5;stroke-linecap:butt;stroke-linejoin:miter;stroke-miterlimit:4;stroke-dasharray:none;stroke-opacity:1"
       inkscape:connector-curvature="0" />
    <path
       inkscape:connector-curvature="0"
       id="path1191"
       d="M 49.547439,-15.670369 A 42.250201,42.250201 0 0 0 7.2983391,26.58027 42.250201,42.250201 0 0 0 49.547439,68.829887 42.250201,42.250201 0 0 0 91.798089,26.58027 42.250201,42.250201 0 0 0 49.547439,-15.670369 Z m 0,12.091248 a 30.158907,30.158907 0 0 1 30.15992,30.158872 30.158907,30.158907 0 0 1 -30.15992,30.158883 30.158907,30.158907 0 0 1 -30.15836,-30.158883 30.158907,30.158907 0 0 1 30.15836,-30.158872 z"
       style="opacity:1;fill:#9dd3f8;fill-opacity:1;stroke:none;stroke-width:0.5;stroke-miterlimit:4;stroke-dasharray:none;stroke-dashoffset:0;stroke-opacity:1" />
    <path
       inkscape:connector-curvature="0"
       style="fill:none;stroke:#000000;stroke-width:0.50000101;stroke-linecap:butt;stroke-linejoin:miter;stroke-miterlimit:4;stroke-dasharray:none;stroke-opacity:1"
       d="m 13.611497,228.82089 c 5.021762,0 5.227717,-13.25303 10.249479,-13.25303 5.021763,0 5.227719,13.25303 10.249482,13.25303 5.021762,0 5.227717,-13.25303 10.24948,-13.25303 5.021762,0 5.227718,13.25303 10.249481,13.25303 5.021762,0 5.227717,-13.25303 10.24948,-13.25303 5.021762,0 5.227718,13.25303 10.249481,13.25303 5.021762,0 5.227719,-13.25303 10.249481,-13.25303 5.021762,0 5.227717,13.25303 10.24948,13.25303 5.021759,0 5.227719,-13.25303 10.249479,-13.25303 5.02176,0 5.22772,13.25303 10.24948,13.25303 5.02176,0 5.22772,-13.25303 10.24949,-13.25303 5.02176,0 5.22772,13.25303 10.24948,13.25303 5.02176,0 5.22772,-13.25303 10.24948,-13.25303 5.02176,0 5.22771,13.25303 10.24947,13.25303 5.02176,0 5.22773,-13.25303 10.24949,-13.25303 5.02176,0 5.22772,13.25303 10.24948,13.25303 5.02176,0 5.22772,-13.25303 10.24948,-13.25303 5.02177,0 5.22771,13.25303 10.24947,13.25303 5.02177,0 5.22773,-13.25303 10.24949,-13.25303 5.02176,0 5.22772,13.25303 10.24948,13.25303 5.02176,0 5.22773,-13.25303 10.24949,-13.25303 5.02176,0 5.22771,13.25303 10.24947,13.25303 5.02176,0 5.22772,-13.25303 10.24948,-13.25303 5.02176,0 5.22772,13.25303 10.24948,13.25303 5.02177,0 5.22773,-13.25303 10.24949,-13.25303 5.02176,0 5.22771,13.25303 10.24947,13.25303"
       id="path1210"
       sodipodi:nodetypes="csssssssssssssssssssssssssc" />
    <path
       inkscape:connector-curvature="0"
       id="path2072"
       style="fill:none;stroke:#ff0000;stroke-width:0.60000002;stroke-linecap:butt;stroke-linejoin:miter;stroke-miterlimit:4;stroke-dasharray:none;stroke-opacity:1"
       d="m 90.209859,36.53231 c -0.94824,4.203343 -11.81482,0.543547 -13.74991,4.393335 -1.93597,3.8497 7.19805,10.207829 4.38593,13.472366 -2.81298,3.264534 -10.63831,-5.046721 -14.1644,-2.569013 -3.52522,2.477792 1.55237,12.447922 -2.46713,13.999437 -4.02036,1.551511 -6.99982,-9.423235 -11.27592,-8.892133 -4.27608,0.531102 -4.51294,11.775468 -8.78731,11.232261 -4.27437,-0.543187 -1.69224,-11.501202 -5.70059,-13.081809 -4.00835,-1.580608 -9.60083,8.277956 -13.11233,5.780774 -3.51149,-2.497359 3.9011,-10.975609 1.0804,-14.232593 -2.82155,-3.256985 -12.31253,2.887124 -14.27681,-0.948073 -1.96426,-3.835199 8.54617,-7.905442 7.57733,-12.104063 -0.96968,-4.198535 -12.2859199,-3.277236 -12.1769499,-7.584841 0.10899,-4.307519 11.1265999,-2.855203 12.3031099,-7.000275 1.17736,-4.145072 -9.32709,-8.813183 -7.17918,-12.5486619 2.14792,-3.7354809 11.1635,2.7315415 14.13694,-0.3871927 2.97344,-3.1187352 -4.15939,-12.1043988 -0.53118,-14.4300416 3.62734,-2.3256448 8.63885,7.59581867 12.72015,6.2147282 4.08129,-1.381173 1.73944,-12.435126 6.01382,-12.978413 4.27437,-0.54329 4.51209,10.9156192 8.78815,11.4467229 4.27611,0.5311027 7.20407,-10.2395789 11.22445,-8.6882339 4.01951,1.551345 -1.15677,11.70716747 2.36844,14.1849598 3.52523,2.4777915 11.20897,-5.6761625 14.0211,-2.41154333 2.81211,3.26444673 -6.49696,9.73953713 -4.56101,13.58932353 1.93595,3.849786 12.60432,0.260789 13.55256,4.464215 0.94737,4.20334 -10.44094,5.813554 -10.34526,9.549724 -0.11714,3.736169 11.10383,5.325615 10.1556,9.52904 z"
       sodipodi:nodetypes="sccccsssccscscssccsscscsccs" />
    <path
       d="M 178.60914,25.511681 A 33.786383,33.786383 0 0 1 144.82231,59.297686 33.786383,33.786383 0 0 1 111.03673,25.511681 33.786383,33.786383 0 0 1 144.82231,-8.2747712 33.786383,33.786383 0 0 1 178.60914,25.511681"
       style="opacity:1;fill:#addaf7;fill-opacity:1;stroke:none;stroke-width:0.5;stroke-miterlimit:4;stroke-dasharray:none;stroke-dashoffset:0;stroke-opacity:1"
       id="path1245"
       inkscape:connector-curvature="0" />
    <path
       inkscape:connector-curvature="0"
       id="path1247"
       style="opacity:1;fill:#addaf7;fill-opacity:1;stroke:none;stroke-width:0.5;stroke-miterlimit:4;stroke-dasharray:none;stroke-dashoffset:0;stroke-opacity:1"
       d="M 79.707129,26.579949 A 30.158906,30.158906 0 0 1 49.547639,56.738518 30.158906,30.158906 0 0 1 19.389289,26.579949 30.158906,30.158906 0 0 1 49.547639,-3.57902 30.158906,30.158906 0 0 1 79.707129,26.579949" />
    <path
       d="M 102.95131,128.15433 A 42.2502,42.2502 0 0 1 60.700311,170.40406 42.2502,42.2502 0 0 1 18.450881,128.15433 42.2502,42.2502 0 0 1 60.700311,85.904044 42.2502,42.2502 0 0 1 102.95131,128.15433"
       style="opacity:1;fill:none;fill-opacity:1;stroke:#000000;stroke-width:0.5;stroke-miterlimit:4;stroke-dasharray:none;stroke-dashoffset:0;stroke-opacity:1"
       id="path836"
       inkscape:connector-curvature="0" />
    <path
       sodipodi:nodetypes="csc"
       id="path824"
       d="m 17.09559,234.93097 c 5.02176,0 5.22772,13.25303 10.24948,13.25303 5.02176,0 5.22772,-13.25303 10.24948,-13.25303"
       style="fill:none;stroke:#000000;stroke-width:0.50000101;stroke-linecap:butt;stroke-linejoin:miter;stroke-miterlimit:4;stroke-dasharray:none;stroke-opacity:1"
       inkscape:connector-curvature="0" />
    <path
       id="path3705"
       d="m 109.57511,128.31858 c -0.12447,5.0197 -13.223309,3.62842 -14.327859,8.52668 -1.10455,4.89827 10.998959,9.50128 8.743359,13.9874 m 0,0 c -2.25561,4.48613 -13.490929,-2.70684 -16.768319,1.09733 -3.27739,3.80417 5.26269,13.61006 1.15462,16.49741 m 0,0 c -4.10806,2.88735 -10.5823,-8.69852 -15.26685,-6.89073 -4.68454,1.8078 -1.75222,14.53245 -6.73518,15.15132 m 0,0 c -4.98297,0.61887 -5.22164,-12.5747 -10.2028,-13.20773 -4.98117,-0.63304 -8.50322,12.07178 -13.17447,10.22992 m 0,0 c -4.67124,-1.84186 1.35281,-13.48102 -2.73929,-16.39101 -4.09209,-2.90998 -13.15007,6.68616 -16.43769,2.89079 m 0,0 c -3.28762,-3.79537 7.463,-11.35285 5.174,-15.82204 -2.28899,-4.46918 -14.74788,-0.19112 -15.87713,-5.08373 m 0,0 c -1.12924,-4.89261 11.84284,-6.46434 11.96975,-11.48396 0.12691,-5.01962 -13.02968,-7.28207 -11.65807,-12.11235 m 0,0 c 1.37162,-4.83027 13.36685,-0.0449 15.86973,-4.39787 2.50289,-4.35301 -8.07076,-12.566661 -4.60588,-16.200927 m 0,0 c 3.46488,-3.634267 11.89682,6.194607 16.12397,3.484554 4.22715,-2.710049 -1.33261,-14.8571 3.42372,-16.466541 m 0,0 c 4.75632,-1.609441 7.94508,11.207359 12.92625,10.574315 4.98116,-0.633044 5.22019,-13.576597 10.20316,-12.957718 m 0,0 c 4.98296,0.618879 1.99101,13.580993 6.67555,15.388801 4.68454,1.807808 11.04371,-9.562455 15.15176,-6.675084 m 0,0 c 4.10805,2.887372 -4.59795,12.87628 -1.3206,16.68046 3.27736,3.80419 14.308739,-3.25251 16.564299,1.23363 m 0,0 c 2.25557,4.48614 -10.077789,9.1713 -8.973299,14.06958 1.10449,4.89828 14.007699,3.5314 14.132109,8.55111"
       style="fill:none;stroke:#000000;stroke-width:0.50000101;stroke-linecap:butt;stroke-linejoin:miter;stroke-miterlimit:4;stroke-dasharray:none;stroke-opacity:1"
       inkscape:connector-curvature="0" />
    <path
       style="opacity:1;fill:#9dd3f8;fill-opacity:1;stroke:none;stroke-width:0.5;stroke-miterlimit:4;stroke-dasharray:none;stroke-dashoffset:0;stroke-opacity:1"
       d="m 242.10822,-15.514704 a 42.250201,42.250201 0 0 0 -42.24962,42.250652 42.250201,42.250201 0 0 0 42.24962,42.250131 42.250201,42.250201 0 0 0 42.25063,-42.250131 42.250201,42.250201 0 0 0 -42.25063,-42.250652 z m 0.0284,5.7541706 A 36.52511,36.52511 0 0 1 278.66257,26.764888 36.52511,36.52511 0 0 1 242.13662,63.289789 36.52511,36.52511 0 0 1 205.61223,26.764888 36.52511,36.52511 0 0 1 242.13662,-9.7605334 Z"
       id="path870"
       inkscape:connector-curvature="0" />
    <path
       inkscape:connector-curvature="0"
       style="fill:none;stroke:#000000;stroke-width:0.49999997;stroke-linecap:butt;stroke-linejoin:miter;stroke-miterlimit:4;stroke-dasharray:none;stroke-opacity:1"
       d="m 13.611496,206.87865 c 1.959811,0 2.040187,-5.5 4,-5.5 1.959811,0 2.040188,5.5 4,5.5 1.959811,0 2.040189,-5.5 3.999999,-5.5 1.959812,0 2.040189,5.5 4,5.5"
       id="path994"
       sodipodi:nodetypes="csssc" />
    <path
       style="fill:none;stroke:#ff0000;stroke-width:0.60000002;stroke-linecap:butt;stroke-linejoin:miter;stroke-miterlimit:4;stroke-dasharray:none;stroke-opacity:1"
       d="m 278.95999,26.662208 c -0.0442,1.78429 5.08279,2.11171 4.95036,3.891631 -0.13244,1.77993 -5.28629,1.21615 -5.59311,2.97443 -0.3068,1.75829 4.64192,2.95121 4.16462,4.67107 -0.47728,1.71986 -5.38166,0.17666 -6.02432,1.84181 m 0,0 c -0.64263,1.66514 4.01766,3.81259 3.21588,5.40723 -0.80176,1.59464 -5.27856,-0.8509 -6.23214,0.65787 -0.95357,1.50877 3.23445,4.54514 2.13756,5.95315 -1.09689,1.40802 -4.97577,-1.83464 -6.2062,-0.54169 m 0,0 c -1.23044,1.29293 2.3454,4.97234 1.05242,6.20275 -1.29296,1.2304 -4.74213,-2.65706 -6.15017,-1.56019 -1.40805,1.09686 1.45092,5.29513 -0.0579,6.24866 -1.50879,0.95354 -4.1104,-3.49314 -5.70506,-2.69141 m 0,0 c -1.59465,0.80172 0.41068,5.51387 -1.25448,6.15648 -1.66515,0.6426 -3.34202,-4.18616 -5.06188,-3.70891 -1.71987,0.47724 -0.65854,5.52873 -2.41683,5.8355 -1.75828,0.30676 -2.45738,-4.71302 -4.2373,-4.58063 m 0,0 c -1.77993,0.1324 -1.72796,5.34235 -3.51222,5.29719 -1.78427,-0.0452 -1.59837,-5.16218 -3.37806,-5.29756 -1.7797,-0.13534 -2.49491,4.89588 -4.25194,4.58208 -1.75703,-0.31381 -0.6755,-5.33834 -2.39244,-5.82594 m 0,0 c -1.71696,-0.48758 -3.43419,4.35412 -5.09462,3.6994 -1.66044,-0.6547 0.36901,-5.32831 -1.2196,-6.14196 -1.5886,-0.81366 -4.23246,3.6344 -5.73503,2.67109 -1.50259,-0.96329 1.37,-5.1334 -0.0335,-6.23625 m 0,0 c -1.40337,-1.10285 -4.86652,2.78041 -6.15833,1.54878 -1.29181,-1.23165 2.28434,-4.91125 1.0527,-6.20308 -1.23162,-1.29182 -5.09743,1.95698 -6.20027,0.55359 -1.10283,-1.40338 3.08279,-4.47171 2.11952,-5.9743 m 0,0 c -0.96329,-1.5026 -5.40285,0.96251 -6.2165,-0.6261 -0.81363,-1.58862 3.85499,-3.78123 3.2003,-5.44168 -0.65469,-1.66044 -5.52348,-0.0935 -6.01105,-1.81042 -0.48756,-1.71695 4.47697,-2.93965 4.1632,-4.6967 m 0,0 c -0.3138,-1.75704 -5.45119,-1.1809 -5.58652,-2.96061 -0.13534,-1.779691 4.90496,-1.983031 4.95006,-3.767301 0.0451,-1.78427 -5.08536,-2.11726 -4.95004,-3.89697 0.13531,-1.7797 5.27281,-1.20361 5.58656,-2.960651 m 0,0 c 0.31378,-1.75704 -4.65069,-2.97967 -4.16313,-4.69664 0.48754,-1.71696 5.35642,-0.15001 6.0111,-1.81045 0.65468,-1.66045 -4.0139,-3.8529894 -3.20028,-5.4416094 0.81363,-1.58862 5.25328,0.87648 6.21657,-0.62611 m 0,0 c 0.96326,-1.50262 -3.22233,-4.57087 -2.11952,-5.97426 1.10283,-1.40338999 4.96872,1.84543 6.20035,0.55359 1.2316,-1.29182999 -2.34453,-4.971378 -1.05274,-6.203028 1.29181,-1.231651 4.75503,2.651648 6.1584,1.548788 m 0,0 c 1.40335,-1.10286 -1.46921,-5.2729 0.0334,-6.236214 1.50258,-0.963313 4.14649,3.484796 5.73508,2.671133 1.5886,-0.813661 -0.44083,-5.4872096 1.2196,-6.1419256 1.66043,-0.654716 3.37768,4.1870286 5.09463,3.6994386 m 0,0 c 1.71695,-0.48759 0.63542,-5.5120726 2.39246,-5.8258776 1.75703,-0.313805 2.47225,4.7174676 4.25195,4.5821056 1.77968,-0.1353606 1.59378,-5.2523796 3.37805,-5.2975286 1.78427,-0.04515 1.7323,5.164847 3.51222,5.2972456 m 0,0 c 1.77993,0.132399 2.47902,-4.8873556 4.23731,-4.5805876 1.75828,0.306768 0.69695,5.3583006 2.4168,5.8355436 1.71986,0.477244 3.39673,-4.3514656 5.06189,-3.7088626 1.66517,0.642602 -0.34021,5.3547756 1.25444,6.1565116 m 0,0 c 1.59466,0.801735 4.19628,-3.64491 5.70506,-2.691365 1.50878,0.953545 -1.3502,5.151817 0.0578,6.24868 1.40803,1.096883 4.8572,-2.790547 6.15015,-1.560137 1.29298,1.23041 -2.28288,4.90980001 -1.05245,6.20277 m 0,0 c 1.23043,1.29294 5.10931,-1.94967999 6.2062,-0.54165 1.09687,1.40802 -3.09118,4.44435 -2.13763,5.95313 0.95357,1.50877 5.43037,-0.9367 6.23213,0.65794 0.80175,1.59465 -3.85856,3.7420494 -3.21593,5.4072094 m 0,0 c 0.64263,1.66514 5.54702,0.12201 6.02429,1.84186 0.47726,1.71987 -4.47147,2.91275 -4.16468,4.67102 0.30679,1.758301 5.46064,1.194571 5.59307,2.974501 0.13242,1.77992 -4.99462,2.10727 -4.95041,3.89157"
       id="path0195"
       inkscape:connector-curvature="0" />
    <path
       d="M 278.66266,26.764728 A 36.52511,36.52511 0 0 1 242.13688,63.289649 36.52511,36.52511 0 0 1 205.61243,26.764728 36.52511,36.52511 0 0 1 242.13688,-9.7606104 36.52511,36.52511 0 0 1 278.66266,26.764728"
       style="opacity:1;fill:#addaf7;fill-opacity:1;stroke:none;stroke-width:0.50000006;stroke-miterlimit:4;stroke-dasharray:none;stroke-dashoffset:0;stroke-opacity:1"
       id="path1292"
       inkscape:connector-curvature="0" />
    <text
       xml:space="preserve"
       style="font-size:2.82222223px;line-height:1.25;font-family:Arial;-inkscape-font-specification:Arial;writing-mode:lr-tb;opacity:1;fill:#ffffff;fill-opacity:1;stroke:none;stroke-width:0.17999999;stroke-miterlimit:4;stroke-dasharray:none;stroke-dashoffset:0;stroke-opacity:1"
       x="152.97722"
       y="124.75689"
       id="text831"><tspan
         sodipodi:role="line"
         id="tspan829"
         x="152.97722"
         y="124.75689"
         style="font-size:5.64444447px;fill:#000000;fill-opacity:1;stroke-width:0.17999999">https://www.youtube.com/watch?v=Yt-t159ez78</tspan></text>
  </g>
</svg>
